<svg width="22" height="22" viewBox="0 0 22 22" fill="none" xmlns="http://www.w3.org/2000/svg">
<path d="M10.9997 12.1792L2.25609 20.9228C2.10012 21.0787 1.90888 21.1621 1.68238 21.1728C1.45588 21.1835 1.25395 21.1001 1.07659 20.9228C0.899227 20.7454 0.810547 20.5488 0.810547 20.333C0.810547 20.1172 0.899227 19.9206 1.07659 19.7433L9.82017 10.9997L1.07659 2.25609C0.920616 2.10012 0.837283 1.90888 0.826588 1.68238C0.815894 1.45588 0.899227 1.25395 1.07659 1.07659C1.25395 0.899228 1.45053 0.810547 1.66634 0.810547C1.88214 0.810547 2.07873 0.899228 2.25609 1.07659L10.9997 9.82017L19.7433 1.07659C19.8992 0.920617 20.0905 0.837283 20.317 0.826589C20.5435 0.815895 20.7454 0.899228 20.9228 1.07659C21.1001 1.25395 21.1888 1.45053 21.1888 1.66634C21.1888 1.88214 21.1001 2.07873 20.9228 2.25609L12.1792 10.9997L20.9228 19.7433C21.0787 19.8992 21.1621 20.0905 21.1728 20.317C21.1835 20.5435 21.1001 20.7454 20.9228 20.9228C20.7454 21.1001 20.5488 21.1888 20.333 21.1888C20.1172 21.1888 19.9206 21.1001 19.7433 20.9228L10.9997 12.1792Z" fill="#6B6E70"/>
</svg>
