<svg width="131" height="132" viewBox="0 0 131 132" fill="none" xmlns="http://www.w3.org/2000/svg">
<path d="M65.5243 131.25C56.5013 131.25 48.0182 129.538 40.075 126.114C32.1318 122.689 25.2222 118.042 19.3463 112.171C13.4706 106.301 8.8189 99.3981 5.39134 91.4624C1.96378 83.5265 0.25 75.0472 0.25 66.0243C0.25 57.0013 1.96281 48.5182 5.38844 40.575C8.81406 32.6318 13.4631 25.7222 19.3356 19.8463C25.2081 13.9706 32.1138 9.3189 40.0525 5.89134C47.9913 2.46378 56.4738 0.75 65.5 0.75C71.7647 0.75 77.8087 1.62369 83.6319 3.37106C89.4552 5.11855 94.9973 7.63285 100.258 10.914C101.234 11.5088 101.878 12.3081 102.189 13.3119C102.501 14.3158 102.331 15.2453 101.68 16.1004C101.03 16.9556 100.172 17.4622 99.1079 17.6202C98.0436 17.7783 97.0561 17.5598 96.1452 16.9648C91.5349 14.037 86.6342 11.8109 81.4429 10.2865C76.2518 8.76215 70.9375 8 65.5 8C49.4292 8 35.7448 13.649 24.4469 24.9469C13.149 36.2448 7.5 49.9292 7.5 66C7.5 82.0708 13.149 95.7552 24.4469 107.053C35.7448 118.351 49.4292 124 65.5 124C81.5708 124 95.2552 118.351 106.553 107.053C117.851 95.7552 123.5 82.0708 123.5 66C123.5 64.1604 123.423 62.3783 123.27 60.6537C123.117 58.9291 122.84 57.1653 122.44 55.3621C122.199 54.3283 122.336 53.3403 122.852 52.3979C123.368 51.4554 124.15 50.868 125.198 50.6356C126.185 50.4033 127.083 50.5845 127.892 51.1794C128.701 51.7742 129.226 52.5736 129.467 53.5775C129.895 55.5479 130.216 57.5606 130.429 59.6155C130.643 61.6702 130.75 63.7984 130.75 66C130.75 75.0263 129.038 83.5088 125.614 91.4475C122.189 99.3863 117.542 106.292 111.671 112.164C105.801 118.037 98.8981 122.686 90.9624 126.112C83.0265 129.537 74.5472 131.25 65.5243 131.25ZM55.0712 84.0692L123.054 16.0446C123.732 15.3661 124.557 14.9967 125.529 14.9363C126.5 14.8758 127.395 15.2554 128.215 16.0751C128.966 16.8263 129.342 17.6713 129.342 18.61C129.342 19.5489 128.956 20.404 128.185 21.1754L59.1702 90.2317C57.9991 91.4029 56.6328 91.9885 55.0712 91.9885C53.5096 91.9885 52.1432 91.4029 50.9721 90.2317L31.8433 71.1029C31.1647 70.4244 30.8022 69.5926 30.7558 68.6073C30.7093 67.622 31.0718 66.7436 31.8433 65.9721C32.6147 65.2006 33.4699 64.8148 34.4087 64.8148C35.3475 64.8148 36.2026 65.2006 36.974 65.9721L55.0712 84.0692Z" fill="#86C232"/>
</svg>
