<svg width="54" height="54" viewBox="0 0 54 54" fill="none" xmlns="http://www.w3.org/2000/svg">
<path fill-rule="evenodd" clip-rule="evenodd" d="M28.4405 28.146V16.3327C29.0582 16.0312 29.5555 15.5293 29.8513 14.9089C30.1471 14.2885 30.2239 13.5862 30.0692 12.9165C29.9145 12.2468 29.5374 11.6493 28.9995 11.2214C28.4616 10.7936 27.7945 10.5607 27.1072 10.5607C26.4199 10.5607 25.7528 10.7936 25.2149 11.2214C24.677 11.6493 24.2999 12.2468 24.1452 12.9165C23.9905 13.5862 24.0673 14.2885 24.3631 14.9089C24.6589 15.5293 25.1562 16.0312 25.7739 16.3327V28.1194H14.3872V20.5994C14.9899 20.2839 15.4694 19.7754 15.7489 19.1552C16.0284 18.535 16.0919 17.8389 15.929 17.1784C15.7662 16.5179 15.3866 15.9311 14.8508 15.5119C14.315 15.0926 13.6542 14.8652 12.9739 14.866C12.2959 14.8711 11.639 15.1028 11.1078 15.5241C10.5766 15.9454 10.2014 16.5323 10.042 17.1913C9.88265 17.8503 9.94815 18.5437 10.2281 19.1612C10.5081 19.7788 10.9865 20.285 11.5872 20.5994V28.146H11.0005C9.50528 28.1402 8.02964 27.8053 6.67838 27.165C5.32712 26.5248 4.13338 25.5949 3.18191 24.4414C2.23044 23.2879 1.54458 21.9391 1.17302 20.4907C0.801466 19.0423 0.75332 17.5299 1.03201 16.0609C1.31069 14.5918 1.90937 13.2021 2.78555 11.9904C3.66172 10.7787 4.7939 9.77481 6.1017 9.04991C7.4095 8.325 8.86086 7.8969 10.3527 7.79599C11.8446 7.69508 13.3404 7.92383 14.7339 8.46602C15.8478 6.0746 17.6185 4.04897 19.8394 2.62517C22.0604 1.20136 24.6402 0.437997 27.2783 0.424023C29.9164 0.41005 32.5042 1.14604 34.7401 2.54624C36.976 3.94645 38.768 5.9532 39.9072 8.33269C40.966 7.98465 42.0727 7.80469 43.1872 7.79935C45.8959 7.79935 48.4937 8.8754 50.4091 10.7908C52.3245 12.7061 53.4005 15.3039 53.4005 18.0127C53.4005 20.7214 52.3245 23.3192 50.4091 25.2346C48.4937 27.15 45.8959 28.226 43.1872 28.226H42.5205V20.5994C43.1223 20.2834 43.6007 19.7749 43.8796 19.1551C44.1584 18.5353 44.2215 17.8399 44.0588 17.18C43.8961 16.5202 43.5169 15.9338 42.9819 15.5147C42.4469 15.0956 41.7868 14.8679 41.1072 14.8679C40.4276 14.8679 39.7675 15.0956 39.2325 15.5147C38.6975 15.9338 38.3183 16.5202 38.1556 17.18C37.9929 17.8399 38.056 18.5353 38.3348 19.1551C38.6137 19.7749 39.0921 20.2834 39.6939 20.5994V28.146H28.4405Z" fill="#61892F"/>
<path fill-rule="evenodd" clip-rule="evenodd" d="M14.3865 36.0398C15.5797 36.3214 16.6395 37.0054 17.3874 37.9768C18.1354 38.9482 18.5259 40.1476 18.4931 41.3731C18.4949 42.4057 18.2071 43.418 17.6623 44.2952C17.1175 45.1723 16.3377 45.8791 15.4113 46.3351C14.485 46.7912 13.4492 46.9783 12.4219 46.8752C11.3945 46.7721 10.4166 46.3829 9.59938 45.7518C8.78213 45.1207 8.15827 44.2731 7.79868 43.3052C7.43909 42.3373 7.35819 41.2879 7.56516 40.2763C7.77213 39.2647 8.25868 38.3315 8.96953 37.5826C9.68037 36.8337 10.587 36.2992 11.5865 36.0398V28.1465H14.2531L14.3865 36.0398ZM12.9731 44.0398C13.6804 44.0398 14.3586 43.7589 14.8587 43.2588C15.3588 42.7587 15.6398 42.0804 15.6398 41.3731C15.6398 40.6659 15.3588 39.9876 14.8587 39.4875C14.3586 38.9874 13.6804 38.7065 12.9731 38.7065C12.2659 38.7065 11.5876 38.9874 11.0875 39.4875C10.5874 39.9876 10.3065 40.6659 10.3065 41.3731C10.3065 42.0804 10.5874 42.7587 11.0875 43.2588C11.5876 43.7589 12.2659 44.0398 12.9731 44.0398ZM42.5198 36.0398C43.8157 36.3831 44.9423 37.1861 45.6895 38.2992C46.4367 39.4122 46.7533 40.7591 46.5803 42.0884C46.4072 43.4178 45.7563 44.6387 44.749 45.5233C43.7418 46.408 42.447 46.8958 41.1064 46.8958C39.7659 46.8958 38.4711 46.408 37.4639 45.5233C36.4566 44.6387 35.8057 43.4178 35.6326 42.0884C35.4596 40.7591 35.7762 39.4122 36.5234 38.2992C37.2705 37.1861 38.3972 36.3831 39.6931 36.0398V28.1731H42.5198V36.0398ZM41.1064 44.0398C41.7457 44.0735 42.3758 43.8762 42.8816 43.4837C43.3874 43.0913 43.7351 42.53 43.8613 41.9024C43.9874 41.2748 43.8836 40.6228 43.5688 40.0654C43.2539 39.508 42.7491 39.0824 42.1465 38.8665C41.786 38.7373 41.4019 38.6873 41.0204 38.7198C40.6389 38.7523 40.2688 38.8667 39.9354 39.055C39.602 39.2433 39.3131 39.5012 39.0883 39.8112C38.8634 40.1211 38.708 40.4759 38.6326 40.8513C38.5571 41.2267 38.5634 41.6139 38.6509 41.9867C38.7385 42.3595 38.9053 42.709 39.14 43.0115C39.3748 43.3141 39.6719 43.5625 40.0112 43.7399C40.3505 43.9174 40.7241 44.0196 41.1064 44.0398ZM28.4398 42.8931C29.7403 43.2185 30.8769 44.0083 31.6356 45.1135C32.3942 46.2188 32.7225 47.5634 32.5586 48.8939C32.3946 50.2245 31.7498 51.4491 30.7456 52.3372C29.7414 53.2253 28.447 53.7155 27.1064 53.7155C25.7659 53.7155 24.4715 53.2253 23.4673 52.3372C22.4631 51.4491 21.8183 50.2245 21.6543 48.8939C21.4904 47.5634 21.8187 46.2188 22.5773 45.1135C23.336 44.0083 24.4726 43.2185 25.7731 42.8931V28.2265H28.5998L28.4398 42.8931ZM26.9998 50.8931C27.571 50.8903 28.1261 50.7041 28.5836 50.362C29.041 50.0199 29.3764 49.54 29.5406 48.9929C29.7048 48.4458 29.6889 47.8604 29.4954 47.323C29.3019 46.7856 28.9409 46.3246 28.4656 46.0077C27.9904 45.6909 27.4259 45.535 26.8554 45.5631C26.2849 45.5911 25.7385 45.8016 25.2966 46.1636C24.8548 46.5255 24.5408 47.0198 24.4009 47.5736C24.2611 48.1274 24.3027 48.7115 24.5198 49.2398C24.7297 49.721 25.0771 50.1296 25.5183 50.4142C25.9594 50.6988 26.4748 50.8469 26.9998 50.8398V50.8931Z" fill="#86C232"/>
</svg>
