<svg width="102" height="115" viewBox="0 0 102 115" fill="none" xmlns="http://www.w3.org/2000/svg">
<path d="M19.2115 115.001C15.9676 115.001 13.2047 113.86 10.9227 111.578C8.64091 109.296 7.5 106.533 7.5 103.289V13.5009H0.25V6.25089H29.25V0.673828H72.75V6.25089H101.75V13.5009H94.5V103.289C94.5 106.626 93.3823 109.412 91.1469 111.648C88.9115 113.883 86.1253 115.001 82.7885 115.001H19.2115ZM87.25 13.5009H14.75V103.289C14.75 104.591 15.1683 105.66 16.0048 106.496C16.8413 107.333 17.9102 107.751 19.2115 107.751H82.7885C83.9038 107.751 84.9262 107.286 85.8558 106.357C86.7853 105.427 87.25 104.405 87.25 103.289V13.5009ZM35.1056 93.2509H42.3558V28.0009H35.1056V93.2509ZM59.6442 93.2509H66.8943V28.0009H59.6442V93.2509Z" fill="#86C232"/>
</svg>
