<svg width="26" height="26" viewBox="0 0 26 26" fill="none" xmlns="http://www.w3.org/2000/svg">
<path d="M4.77788 20.7699C5.98205 19.9035 7.25977 19.2183 8.61106 18.7143C9.96235 18.2103 11.4253 17.9583 13 17.9583C14.5747 17.9583 16.0377 18.2103 17.3889 18.7143C18.7402 19.2183 20.018 19.9035 21.2221 20.7699C22.1575 19.8018 22.9099 18.6585 23.4793 17.3399C24.0486 16.0213 24.3333 14.5747 24.3333 13C24.3333 9.85972 23.2295 7.18576 21.0219 4.97813C18.8142 2.77049 16.1403 1.66667 13 1.66667C9.85972 1.66667 7.18576 2.77049 4.97813 4.97813C2.77049 7.18576 1.66667 9.85972 1.66667 13C1.66667 14.5747 1.95136 16.0213 2.52074 17.3399C3.09015 18.6585 3.84252 19.8018 4.77788 20.7699ZM13.0008 13.7083C11.807 13.7083 10.8001 13.2986 9.98006 12.4791C9.16002 11.6596 8.75 10.653 8.75 9.45915C8.75 8.26532 9.15974 7.2584 9.97921 6.43839C10.7987 5.61835 11.8054 5.20833 12.9992 5.20833C14.193 5.20833 15.1999 5.61808 16.0199 6.43758C16.84 7.25705 17.25 8.26369 17.25 9.45752C17.25 10.6513 16.8403 11.6583 16.0208 12.4783C15.2013 13.2983 14.1946 13.7083 13.0008 13.7083ZM13 25.75C11.2219 25.75 9.55731 25.419 8.00625 24.757C6.45519 24.095 5.10572 23.19 3.95784 22.0422C2.80999 20.8943 1.90504 19.5448 1.24301 17.9937C0.581004 16.4427 0.25 14.7781 0.25 13C0.25 11.2219 0.581004 9.55731 1.24301 8.00625C1.90504 6.45519 2.80999 5.10572 3.95784 3.95784C5.10572 2.80999 6.45519 1.90505 8.00625 1.24301C9.55731 0.581005 11.2219 0.25 13 0.25C14.7781 0.25 16.4427 0.581005 17.9937 1.24301C19.5448 1.90505 20.8943 2.80999 22.0422 3.95784C23.19 5.10572 24.095 6.45519 24.757 8.00625C25.419 9.55731 25.75 11.2219 25.75 13C25.75 14.7781 25.419 16.4427 24.757 17.9937C24.095 19.5448 23.19 20.8943 22.0422 22.0422C20.8943 23.19 19.5448 24.095 17.9937 24.757C16.4427 25.419 14.7781 25.75 13 25.75ZM13 24.3333C14.3059 24.3333 15.5909 24.1049 16.855 23.6482C18.1191 23.1914 19.2116 22.5661 20.1324 21.7724C19.2116 21.0332 18.1463 20.4489 16.9367 20.0193C15.7271 19.5898 14.4148 19.375 13 19.375C11.5852 19.375 10.2684 19.5852 9.0497 20.0057C7.83099 20.4261 6.77029 21.0151 5.86761 21.7724C6.78845 22.5661 7.88092 23.1914 9.14504 23.6482C10.4091 24.1049 11.6941 24.3333 13 24.3333ZM13 12.2917C13.7955 12.2917 14.4666 12.0183 15.0133 11.4716C15.56 10.9249 15.8333 10.2538 15.8333 9.45833C15.8333 8.66283 15.56 7.99173 15.0133 7.44504C14.4666 6.89835 13.7955 6.625 13 6.625C12.2045 6.625 11.5334 6.89835 10.9867 7.44504C10.44 7.99173 10.1667 8.66283 10.1667 9.45833C10.1667 10.2538 10.44 10.9249 10.9867 11.4716C11.5334 12.0183 12.2045 12.2917 13 12.2917Z" fill="#474B4F"/>
</svg>
