<svg width="20" height="26" viewBox="0 0 20 26" fill="none" xmlns="http://www.w3.org/2000/svg">
<path d="M5.75065 20.7917H14.2507C14.4523 20.7917 14.6207 20.724 14.756 20.5887C14.8913 20.4534 14.959 20.2849 14.959 20.0833C14.959 19.8817 14.8913 19.7133 14.756 19.578C14.6207 19.4427 14.4523 19.375 14.2507 19.375H5.75065C5.54904 19.375 5.38058 19.4427 5.24529 19.578C5.10997 19.7133 5.04232 19.8817 5.04232 20.0833C5.04232 20.2849 5.10997 20.4534 5.24529 20.5887C5.38058 20.724 5.54904 20.7917 5.75065 20.7917ZM5.75065 15.125H14.2507C14.4523 15.125 14.6207 15.0573 14.756 14.922C14.8913 14.7867 14.959 14.6183 14.959 14.4167C14.959 14.2151 14.8913 14.0466 14.756 13.9113C14.6207 13.776 14.4523 13.7083 14.2507 13.7083H5.75065C5.54904 13.7083 5.38058 13.776 5.24529 13.9113C5.10997 14.0466 5.04232 14.2151 5.04232 14.4167C5.04232 14.6183 5.10997 14.7867 5.24529 14.922C5.38058 15.0573 5.54904 15.125 5.75065 15.125ZM2.37243 25.75C1.72041 25.75 1.176 25.5316 0.739193 25.0948C0.302387 24.658 0.0839844 24.1136 0.0839844 23.4616V2.53845C0.0839844 1.88643 0.302387 1.34201 0.739193 0.905208C1.176 0.468403 1.72041 0.25 2.37243 0.25H12.5915C12.8966 0.25 13.1931 0.311756 13.481 0.435265C13.7689 0.558751 14.0154 0.723119 14.2207 0.928371L19.2389 5.94663C19.4442 6.15188 19.6086 6.39844 19.7321 6.68631C19.8556 6.97417 19.9173 7.27067 19.9173 7.5758V23.4616C19.9173 24.1136 19.6989 24.658 19.2621 25.0948C18.8253 25.5316 18.2809 25.75 17.6289 25.75H2.37243ZM12.834 6.18913V1.66667H2.37243C2.1545 1.66667 1.95472 1.75748 1.77308 1.93909C1.59146 2.12073 1.50065 2.32052 1.50065 2.53845V23.4616C1.50065 23.6795 1.59146 23.8793 1.77308 24.0609C1.95472 24.2425 2.1545 24.3333 2.37243 24.3333H17.6289C17.8468 24.3333 18.0466 24.2425 18.2282 24.0609C18.4098 23.8793 18.5007 23.6795 18.5007 23.4616V7.33333H13.9782C13.6495 7.33333 13.3766 7.22482 13.1595 7.00778C12.9425 6.79075 12.834 6.51786 12.834 6.18913Z" fill="#474B4F"/>
</svg>
