<svg width="24" height="24" viewBox="0 0 24 24" fill="none" xmlns="http://www.w3.org/2000/svg">
<path d="M2.95446 23.3327C2.30244 23.3327 1.75803 23.1143 1.32122 22.6775C0.884418 22.2407 0.666016 21.6963 0.666016 21.0442V2.95446C0.666016 2.30244 0.884418 1.75803 1.32122 1.32122C1.75803 0.884418 2.30244 0.666016 2.95446 0.666016H12.0266V2.08268H2.95446C2.73653 2.08268 2.53675 2.17349 2.35511 2.35511C2.17349 2.53675 2.08268 2.73653 2.08268 2.95446V21.0442C2.08268 21.2622 2.17349 21.462 2.35511 21.6436C2.53675 21.8252 2.73653 21.916 2.95446 21.916H12.0266V23.3327H2.95446ZM18.3198 17.0122L17.3254 15.9933L20.6111 12.7077H8.02177V11.291H20.6111L17.3254 8.00545L18.3198 6.98651L23.3327 11.9993L18.3198 17.0122Z" fill="#474B4F"/>
</svg>
