<svg width="22" height="26" viewBox="0 0 22 26" fill="none" xmlns="http://www.w3.org/2000/svg">
<path d="M11.005 12.6186C11.6356 12.6186 12.1739 12.394 12.6198 11.9449C13.0657 11.4958 13.2886 10.9559 13.2886 10.3253C13.2886 9.69464 13.0641 9.15638 12.615 8.71051C12.1659 8.26461 11.626 8.04167 10.9953 8.04167C10.3647 8.04167 9.8264 8.26622 9.38051 8.71533C8.93463 9.16441 8.7117 9.70429 8.7117 10.335C8.7117 10.9656 8.93624 11.5039 9.38532 11.9498C9.83443 12.3956 10.3743 12.6186 11.005 12.6186ZM11.0001 23.8756C13.6627 21.5581 15.7678 19.2011 17.3152 16.8046C18.8626 14.408 19.6364 12.3353 19.6364 10.5862C19.6364 7.99444 18.8159 5.85537 17.1749 4.169C15.5339 2.48262 13.4757 1.63943 11.0001 1.63943C8.52462 1.63943 6.46636 2.48262 4.82539 4.169C3.18442 5.85537 2.36393 7.99444 2.36393 10.5862C2.36393 12.3353 3.13764 14.408 4.68507 16.8046C6.23252 19.2011 8.33754 21.5581 11.0001 23.8756ZM11.0001 25.7772C7.67098 22.8331 5.16321 20.0874 3.47683 17.5401C1.79045 14.9929 0.947266 12.6749 0.947266 10.5862C0.947266 7.58942 1.92304 5.11751 3.8746 3.17049C5.82612 1.2235 8.20131 0.25 11.0001 0.25C13.799 0.25 16.1742 1.2235 18.1257 3.17049C20.0772 5.11751 21.053 7.58942 21.053 10.5862C21.053 12.6749 20.2098 14.9929 18.5235 17.5401C16.8371 20.0874 14.3293 22.8331 11.0001 25.7772Z" fill="#474B4F"/>
</svg>
