<svg width="16" height="19" viewBox="0 0 16 19" fill="none" xmlns="http://www.w3.org/2000/svg">
<path d="M8.0034 8.73077C8.44857 8.73077 8.82853 8.57227 9.14328 8.25525C9.45801 7.93823 9.61538 7.55714 9.61538 7.11198C9.61538 6.66681 9.45687 6.28686 9.13987 5.97213C8.82286 5.65738 8.44177 5.5 7.9966 5.5C7.55143 5.5 7.17148 5.65851 6.85673 5.97552C6.54199 6.29252 6.38463 6.67362 6.38463 7.1188C6.38463 7.56397 6.54313 7.94392 6.86013 8.25865C7.17714 8.5734 7.55823 8.73077 8.0034 8.73077ZM8 16.6769C9.87948 15.041 11.3654 13.3772 12.4577 11.6856C13.55 9.99391 14.0962 8.53077 14.0962 7.29615C14.0962 5.46667 13.517 3.95673 12.3587 2.76635C11.2003 1.57597 9.74743 0.980775 8 0.980775C6.25257 0.980775 4.79968 1.57597 3.64135 2.76635C2.48302 3.95673 1.90385 5.46667 1.90385 7.29615C1.90385 8.53077 2.45 9.99391 3.5423 11.6856C4.63462 13.3772 6.12052 15.041 8 16.6769ZM8 18.0192C5.65 15.941 3.87981 14.0029 2.68942 12.2048C1.49904 10.4067 0.90385 8.77052 0.90385 7.29615C0.90385 5.18077 1.59263 3.43589 2.9702 2.06153C4.34775 0.687175 6.02435 0 8 0C9.97565 0 11.6523 0.687175 13.0298 2.06153C14.4074 3.43589 15.0962 5.18077 15.0962 7.29615C15.0962 8.77052 14.501 10.4067 13.3106 12.2048C12.1202 14.0029 10.35 15.941 8 18.0192Z" fill="black"/>
</svg>
