<svg width="40" height="40" viewBox="0 0 40 40" fill="none" xmlns="http://www.w3.org/2000/svg">
<path d="M19.9997 21.1792L11.2561 29.9228C11.1001 30.0787 10.9089 30.1621 10.6824 30.1728C10.4559 30.1835 10.2539 30.1001 10.0766 29.9228C9.89923 29.7454 9.81055 29.5488 9.81055 29.333C9.81055 29.1172 9.89923 28.9206 10.0766 28.7433L18.8202 19.9997L10.0766 11.2561C9.92062 11.1001 9.83728 10.9089 9.82659 10.6824C9.81589 10.4559 9.89923 10.254 10.0766 10.0766C10.2539 9.89923 10.4505 9.81055 10.6663 9.81055C10.8821 9.81055 11.0787 9.89923 11.2561 10.0766L19.9997 18.8202L28.7433 10.0766C28.8992 9.92062 29.0905 9.83728 29.317 9.82659C29.5435 9.81589 29.7454 9.89923 29.9228 10.0766C30.1001 10.254 30.1888 10.4505 30.1888 10.6663C30.1888 10.8821 30.1001 11.0787 29.9228 11.2561L21.1792 19.9997L29.9228 28.7433C30.0787 28.8992 30.1621 29.0905 30.1728 29.317C30.1835 29.5435 30.1001 29.7454 29.9228 29.9228C29.7454 30.1001 29.5488 30.1888 29.333 30.1888C29.1172 30.1888 28.9206 30.1001 28.7433 29.9228L19.9997 21.1792Z" fill="#6B6E70"/>
</svg>
