<svg width="24" height="24" viewBox="0 0 24 24" fill="none" xmlns="http://www.w3.org/2000/svg">
<path d="M16.1 13.2996L14.65 11.8496C14.8333 10.9663 14.6042 10.2121 13.9625 9.58711C13.3208 8.96211 12.55 8.71628 11.65 8.84961L10.2 7.39961C10.4833 7.26628 10.775 7.16628 11.075 7.09961C11.375 7.03294 11.6833 6.99961 12 6.99961C13.25 6.99961 14.3125 7.43711 15.1875 8.31211C16.0625 9.18711 16.5 10.2496 16.5 11.4996C16.5 11.8163 16.4667 12.1246 16.4 12.4246C16.3333 12.7246 16.2333 13.0163 16.1 13.2996ZM19.3 16.4496L17.85 15.0496C18.4833 14.5663 19.05 14.0288 19.55 13.4371C20.05 12.8454 20.4667 12.1996 20.8 11.4996C19.9667 9.81628 18.7625 8.47878 17.1875 7.48711C15.6125 6.49544 13.8833 5.99961 12 5.99961C11.5167 5.99961 11.0458 6.03294 10.5875 6.09961C10.1292 6.16628 9.66667 6.26628 9.2 6.39961L7.65 4.84961C8.35 4.56628 9.0625 4.35378 9.7875 4.21211C10.5125 4.07044 11.25 3.99961 12 3.99961C14.2833 3.99961 16.3708 4.59961 18.2625 5.79961C20.1542 6.99961 21.6 8.61628 22.6 10.6496C22.6667 10.7829 22.7167 10.9204 22.75 11.0621C22.7833 11.2038 22.8 11.3496 22.8 11.4996C22.8 11.6496 22.7875 11.7954 22.7625 11.9371C22.7375 12.0788 22.6917 12.2163 22.625 12.3496C22.2583 13.1663 21.7917 13.9204 21.225 14.6121C20.6583 15.3038 20.0167 15.9163 19.3 16.4496ZM12 18.9996C9.76667 18.9996 7.725 18.3954 5.875 17.1871C4.025 15.9788 2.56667 14.3913 1.5 12.4246C1.41667 12.2913 1.35417 12.1454 1.3125 11.9871C1.27083 11.8288 1.25 11.6663 1.25 11.4996C1.25 11.3329 1.26667 11.1746 1.3 11.0246C1.33333 10.8746 1.39167 10.7246 1.475 10.5746C1.80833 9.90794 2.19583 9.27044 2.6375 8.66211C3.07917 8.05378 3.58333 7.49961 4.15 6.99961L2.075 4.89961C1.89167 4.69961 1.80417 4.46211 1.8125 4.18711C1.82083 3.91211 1.91667 3.68294 2.1 3.49961C2.28333 3.31628 2.51667 3.22461 2.8 3.22461C3.08333 3.22461 3.31667 3.31628 3.5 3.49961L20.5 20.4996C20.6833 20.6829 20.7792 20.9121 20.7875 21.1871C20.7958 21.4621 20.7 21.6996 20.5 21.8996C20.3167 22.0829 20.0833 22.1746 19.8 22.1746C19.5167 22.1746 19.2833 22.0829 19.1 21.8996L15.6 18.4496C15.0167 18.6329 14.425 18.7704 13.825 18.8621C13.225 18.9538 12.6167 18.9996 12 18.9996ZM5.55 8.39961C5.06667 8.83294 4.625 9.30794 4.225 9.82461C3.825 10.3413 3.48333 10.8996 3.2 11.4996C4.03333 13.1829 5.2375 14.5204 6.8125 15.5121C8.3875 16.5038 10.1167 16.9996 12 16.9996C12.3333 16.9996 12.6583 16.9788 12.975 16.9371C13.2917 16.8954 13.6167 16.8496 13.95 16.7996L13.05 15.8496C12.8667 15.8996 12.6917 15.9371 12.525 15.9621C12.3583 15.9871 12.1833 15.9996 12 15.9996C10.75 15.9996 9.6875 15.5621 8.8125 14.6871C7.9375 13.8121 7.5 12.7496 7.5 11.4996C7.5 11.3163 7.5125 11.1413 7.5375 10.9746C7.5625 10.8079 7.6 10.6329 7.65 10.4496L5.55 8.39961Z" fill="#FDFFFF" fill-opacity="0.5"/>
</svg>
