<svg width="48" height="48" viewBox="0 0 48 48" fill="none" xmlns="http://www.w3.org/2000/svg">
<path d="M7.23075 40C6.31025 40 5.54167 39.6917 4.925 39.075C4.30833 38.4583 4 37.6898 4 36.7693V15.2308C4 14.3102 4.30833 13.5417 4.925 12.925C5.54167 12.3083 6.31025 12 7.23075 12H13.1462L16.8462 8H27.2307V10H17.7115L14.0231 14H7.23075C6.87178 14 6.57692 14.1154 6.34615 14.3461C6.11538 14.5769 6 14.8718 6 15.2308V36.7693C6 37.1282 6.11538 37.4231 6.34615 37.6539C6.57692 37.8846 6.87178 38 7.23075 38H36.7693C37.1282 38 37.4231 37.8846 37.6539 37.6539C37.8846 37.4231 38 37.1282 38 36.7693V20.7693H40V36.7693C40 37.6898 39.6917 38.4583 39.075 39.075C38.4583 39.6917 37.6898 40 36.7693 40H7.23075ZM38 14V10H34V8H38V4H40V8H44V10H40V14H38ZM22 33.4615C24.0897 33.4615 25.8558 32.7404 27.2981 31.2981C28.7404 29.8558 29.4616 28.0897 29.4616 26C29.4616 23.9103 28.7404 22.1442 27.2981 20.7019C25.8558 19.2596 24.0897 18.5384 22 18.5384C19.9103 18.5384 18.1442 19.2596 16.7019 20.7019C15.2596 22.1442 14.5385 23.9103 14.5385 26C14.5385 28.0897 15.2596 29.8558 16.7019 31.2981C18.1442 32.7404 19.9103 33.4615 22 33.4615ZM22 31.4615C20.4462 31.4615 19.1475 30.9397 18.1039 29.8961C17.0603 28.8525 16.5385 27.5538 16.5385 26C16.5385 24.4462 17.0603 23.1475 18.1039 22.1039C19.1475 21.0603 20.4462 20.5385 22 20.5385C23.5538 20.5385 24.8525 21.0603 25.8961 22.1039C26.9397 23.1475 27.4616 24.4462 27.4616 26C27.4616 27.5538 26.9397 28.8525 25.8961 29.8961C24.8525 30.9397 23.5538 31.4615 22 31.4615Z" fill="#222629"/>
</svg>
