<svg width="120" height="105" viewBox="0 0 120 105" fill="none" xmlns="http://www.w3.org/2000/svg">
<path d="M118.028 10.5607L60.7923 101.562C59.5354 103.482 57.7734 104.496 55.5063 104.603C53.2393 104.71 51.448 103.824 50.1323 101.945L2.10437 33.3538C0.788745 31.4748 0.568717 29.4885 1.44429 27.3946C2.32005 25.3008 3.87544 23.9919 6.11045 23.4678L111.199 0.808334C113.977 0.263321 116.175 1.14649 117.793 3.45783C119.412 5.76918 119.49 8.13681 118.028 10.5607ZM55.3074 95.5332L109.45 9.29981L9.89924 30.6837L27.5386 55.8753L64.0304 41.103L37.668 70.3416L55.3074 95.5332Z" fill="#86C232"/>
</svg>
