<svg width="20" height="14" viewBox="0 0 20 14" fill="none" xmlns="http://www.w3.org/2000/svg">
<path d="M6.93723 11.8501L17.9396 0.847725C18.0614 0.725933 18.2061 0.661026 18.3735 0.653005C18.541 0.644985 18.6936 0.709891 18.8315 0.847725C18.9693 0.985537 19.0382 1.13417 19.0382 1.29363C19.0382 1.45309 18.9693 1.60173 18.8315 1.73954L7.64395 12.927C7.44204 13.129 7.20646 13.2299 6.93723 13.2299C6.66801 13.2299 6.43243 13.129 6.23052 12.927L1.16802 7.86454C1.0462 7.74275 0.982495 7.59812 0.976891 7.43066C0.971287 7.26318 1.03739 7.11054 1.1752 6.97272C1.31304 6.83489 1.46168 6.76597 1.62114 6.76597C1.7806 6.76597 1.92924 6.83489 2.06705 6.97272L6.93723 11.8501Z" fill="#86C232"/>
</svg>
